HIERARCHY
ROOT hip
{
  OFFSET 0 0 0
  CHANNELS 6 Xposition Yposition Zposition Zrotation Yrotation Xrotation
  JOINT abdomen
  {
    OFFSET 0 20.6881 -0.73152
    CHANNELS 3 Zrotation Xrotation Yrotation
    JOINT chest
    {
      OFFSET 0 11.7043 -0.48768
      CHANNELS 3 Zrotation Xrotation Yrotation
      JOINT neck
      {
        OFFSET 0 22.1894 -2.19456
        CHANNELS 3 Zrotation Xrotation Yrotation
        JOINT head
        {
          OFFSET -0.24384 7.07133 1.2192
          CHANNELS 3 Zrotation Xrotation Yrotation
          JOINT leftEye
          {
            OFFSET 4.14528 8.04674 8.04672
            CHANNELS 3 Zrotation Xrotation Yrotation
            End Site
            {
              OFFSET 1 0 0
            }
          }
          JOINT rightEye
          {
            OFFSET -3.6576 8.04674 8.04672
            CHANNELS 3 Zrotation Xrotation Yrotation
            End Site
            {
              OFFSET 1 0 0
            }
          }
        }
      }
      JOINT rCollar
      {
        OFFSET -2.68224 19.2634 -4.8768
        CHANNELS 3 Zrotation Xrotation Yrotation
        JOINT rShldr
        {
          OFFSET -8.77824 -1.95073 1.46304
          CHANNELS 3 Zrotation Xrotation Yrotation
          JOINT rForeArm
          {
            OFFSET -28.1742 -1.7115 0.48768
            CHANNELS 3 Zrotation Xrotation Yrotation
            JOINT rHand
            {
              OFFSET -22.5879 0.773209 7.07136
              CHANNELS 3 Zrotation Xrotation Yrotation
              JOINT rThumb1
              {
                OFFSET -1.2192 -0.487915 3.41376
                CHANNELS 3 Zrotation Xrotation Yrotation
                JOINT rThumb2
                {
                  OFFSET -3.37035 -0.52449 3.41376
                  CHANNELS 3 Zrotation Xrotation Yrotation
                  End Site
                  {
                    OFFSET -1.78271 -1.18214 1.43049
                  }
                }
              }
              JOINT rIndex1
              {
                OFFSET -7.75947 0.938293 5.60832
                CHANNELS 3 Zrotation Xrotation Yrotation
                JOINT rIndex2
                {
                  OFFSET -2.54057 -0.884171 1.56538
                  CHANNELS 3 Zrotation Xrotation Yrotation
                  End Site
                  {
                    OFFSET -1.62519 -0.234802 1.16502
                  }
                }
              }
              JOINT rMid1
              {
                OFFSET -8.24714 1.18213 3.41376
                CHANNELS 3 Zrotation Xrotation Yrotation
                JOINT rMid2
                {
                  OFFSET -3.10165 -0.590103 1.0647
                  CHANNELS 3 Zrotation Xrotation Yrotation
                  End Site
                  {
                    OFFSET -2.48547 -0.328903 0.83742
                  }
                }
              }
              JOINT rRing1
              {
                OFFSET -8.82822 0.546677 1.51678
                CHANNELS 3 Zrotation Xrotation Yrotation
                JOINT rRing2
                {
                  OFFSET -2.60934 -0.819778 -0.0198488
                  CHANNELS 3 Zrotation Xrotation Yrotation
                  End Site
                  {
                    OFFSET -2.33842 -0.294052 0.168128
                  }
                }
              }
              JOINT rPinky1
              {
                OFFSET -8.27202 -0.0477905 -0.4584
                CHANNELS 3 Zrotation Xrotation Yrotation
                JOINT rPinky2
                {
                  OFFSET -1.82734 -0.647385 -0.700984
                  CHANNELS 3 Zrotation Xrotation Yrotation
                  End Site
                  {
                    OFFSET -1.69225 -0.51767 -0.607171
                  }
                }
              }
            }
          }
        }
      }
      JOINT lCollar
      {
        OFFSET 2.68224 19.2634 -4.8768
        CHANNELS 3 Zrotation Xrotation Yrotation
        JOINT lShldr
        {
          OFFSET 8.77824 -1.95073 1.46304
          CHANNELS 3 Zrotation Xrotation Yrotation
          JOINT lForeArm
          {
            OFFSET 28.1742 -1.7115 0.48768
            CHANNELS 3 Zrotation Xrotation Yrotation
            JOINT lHand
            {
              OFFSET 22.5879 0.773209 7.07136
              CHANNELS 3 Zrotation Xrotation Yrotation
              JOINT lThumb1
              {
                OFFSET 1.2192 -0.487915 3.41376
                CHANNELS 3 Zrotation Xrotation Yrotation
                JOINT lThumb2
                {
                  OFFSET 3.37035 -0.52449 3.41376
                  CHANNELS 3 Zrotation Xrotation Yrotation
                  End Site
                  {
                    OFFSET 1.78271 -1.18214 1.43049
                  }
                }
              }
              JOINT lIndex1
              {
                OFFSET 7.75947 0.938293 5.60832
                CHANNELS 3 Zrotation Xrotation Yrotation
                JOINT lIndex2
                {
                  OFFSET 2.54057 -0.884171 1.56538
                  CHANNELS 3 Zrotation Xrotation Yrotation
                  End Site
                  {
                    OFFSET 1.62519 -0.234802 1.16502
                  }
                }
              }
              JOINT lMid1
              {
                OFFSET 8.24714 1.18213 3.41376
                CHANNELS 3 Zrotation Xrotation Yrotation
                JOINT lMid2
                {
                  OFFSET 3.10165 -0.590103 1.0647
                  CHANNELS 3 Zrotation Xrotation Yrotation
                  End Site
                  {
                    OFFSET 2.48547 -0.328903 0.83742
                  }
                }
              }
              JOINT lRing1
              {
                OFFSET 8.82822 0.546677 1.51678
                CHANNELS 3 Zrotation Xrotation Yrotation
                JOINT lRing2
                {
                  OFFSET 2.60934 -0.819778 -0.0198488
                  CHANNELS 3 Zrotation Xrotation Yrotation
                  End Site
                  {
                    OFFSET 2.33842 -0.294052 0.168128
                  }
                }
              }
              JOINT lPinky1
              {
                OFFSET 8.27202 -0.0477905 -0.4584
                CHANNELS 3 Zrotation Xrotation Yrotation
                JOINT lPinky2
                {
                  OFFSET 1.82734 -0.647385 -0.700984
                  CHANNELS 3 Zrotation Xrotation Yrotation
                  End Site
                  {
                    OFFSET 1.69225 -0.51767 -0.607171
                  }
                }
              }
            }
          }
        }
      }
    }
  }
  JOINT rButtock
  {
    OFFSET -8.77824 4.35084 1.2192
    CHANNELS 3 Zrotation Xrotation Yrotation
    JOINT rThigh
    {
      OFFSET 0 -1.70687 -2.19456
      CHANNELS 3 Zrotation Xrotation Yrotation
      JOINT rShin
      {
        OFFSET 0 -36.8199 0.73152
        CHANNELS 3 Zrotation Xrotation Yrotation
        JOINT rFoot
        {
          OFFSET 0.73152 -45.1104 -5.12064
          CHANNELS 3 Zrotation Xrotation Yrotation
          End Site
          {
            OFFSET -1.1221 -3.69964 12.103
          }
        }
      }
    }
  }
  JOINT lButtock
  {
    OFFSET 8.77824 4.35084 1.2192
    CHANNELS 3 Zrotation Xrotation Yrotation
    JOINT lThigh
    {
      OFFSET 0 -1.70687 -2.19456
      CHANNELS 3 Zrotation Xrotation Yrotation
      JOINT lShin
      {
        OFFSET 0 -36.8199 0.73152
        CHANNELS 3 Zrotation Xrotation Yrotation
        JOINT lFoot
        {
          OFFSET -0.73152 -45.1104 -5.12064
          CHANNELS 3 Zrotation Xrotation Yrotation
          End Site
          {
            OFFSET 1.1221 -3.69964 12.103
          }
        }
      }
    }
  }
}
MOTION
Frames:	4
Frame Time:	0.00833333
52.56960000000001 76.45530000000001 -11.1232 -6.664504 -77.538124 15.004603 -1.37142 7.033092 -86.051591 4.624453 3.219848 80.850919 -9.682128 28.60368 -111.931926 36.216034 28.031913 112.14332 -0.002212 0.0 -0.002406 -0.001999 -0.0 0.003163 -59.834126 -86.721249 -81.634376 129.946571 28.85146 -139.019883 178.180229 16.995686 39.809152 -125.833695 40.621922 113.193044 -12.305603 11.514886 3.094971 -111.001358 -5.234661 99.448033 -0.328112 0.529644 0.186892 -4.675057 20.63354 5.536183 -6.645456 17.108921 4.326476 -168.843033 -22.175159 144.323617 -145.119168 0.268043 -179.211816 -151.400079 -30.39069 -174.191887 -156.383553 53.733985 -150.117715 -24.595188 -39.174234 -25.189222 -1.990135 -14.052886 2.881479 146.006974 -72.264506 -111.892064 1.153156 17.74723 116.617858 172.078511 -0.703001 -142.369477 175.197419 -12.846404 -89.807832 -41.353636 -68.825955 -31.798296 -10.212536 -18.050364 4.564334 169.829468 -27.948312 -108.951733 -2.099732 -6.305431 1.082152 34.388583 55.158363 -28.969678 73.162478 -72.143101 90.19785 149.861751 -26.93181 179.920263 144.259709 9.237682 141.009899 138.385456 -10.940833 134.627199 179.994351 75.749519 0.003865 -176.892266 33.391834 157.6852 21.94514 -67.028543 -57.62983 -51.126244 -45.011854 -120.763712 -179.997919 75.749519 -0.002147 172.850955 37.460531 -0.0 -14.755141 58.488228 -23.577934 179.54926 -10.414812 -70.283984
52.681 76.47800000000001 -11.211599999999999 -5.981824 -77.684918 14.416528 -1.361263 6.932322 -81.799889 5.009572 2.785545 76.344614 10.012151 21.126026 89.884518 -34.916049 5.136652 -80.823244 -0.003371 -0.0 0.000481 0.002336 0.0 0.000153 -50.905387 -86.504067 -72.596488 149.676063 4.614853 -143.591112 -14.259862 -46.605512 93.566632 -24.63396 -69.526309 -27.561457 -176.927349 -14.532656 89.658081 179.255815 -16.992887 97.638626 -150.887278 -16.291516 120.97735 107.662453 -71.102075 53.526268 -0.057931 0.167673 0.033771 -55.97406 62.340907 49.20062 -145.099296 -1.521836 -178.649451 12.145199 51.118251 -2.972993 -74.130356 -51.748981 -72.618472 11.38656 24.596764 4.927296 158.468551 -30.055503 -166.919884 -100.115864 21.330839 120.798682 132.792098 73.546728 139.139011 6.581996 -17.673253 4.781677 -2.015988 -2.000543 0.275508 -4.180888 -6.410164 4.829935 -12.216112 -21.784761 5.121663 -56.0826 -48.742007 -10.567783 4.680823 12.536632 -2.930946 -91.961509 -78.570956 -62.918616 0.015094 -1.322857 0.417785 -10.905752 -7.440371 0.971851 14.103849 -26.511395 13.431247 147.374662 13.499236 143.985509 -179.997095 75.749202 -0.0 -176.530889 35.90462 5.48955 9.978274 63.926776 -78.856749 102.356357 40.137831 5.367292 179.993283 75.750197 0.00693 172.097648 37.258355 34.279055 56.519177 55.433463 104.221258 87.277512 59.174207 154.179548
52.7855 76.48859999999999 -11.279300000000001 -5.168408 -77.591593 13.706285 -1.252239 6.847985 -77.359406 5.359585 2.267453 71.553259 -11.292363 24.421225 -86.386981 39.47899 13.10113 91.203895 -0.001647 0.0 -0.00111 0.004058 -0.0 -0.001465 -159.222016 -48.028676 170.413916 134.119671 0.492034 179.979756 171.34774 25.45774 42.936048 -117.796469 44.159353 104.782247 93.028301 -51.084428 40.501075 -161.649152 -27.291714 126.247591 -27.17178 30.468568 19.89087 -88.590428 48.348861 66.477033 -158.520913 -0.192464 142.144609 80.992492 -77.627616 52.5191 -0.014773 -1.323062 -0.416458 11.533692 -44.099177 -5.448986 -157.329229 57.246687 -150.511281 -85.642512 -52.339014 -84.282662 82.877259 68.301283 -86.000613 117.460505 16.004639 -64.13183 -29.513814 38.131405 135.905464 162.287761 23.690354 -135.774462 160.052698 2.213464 -88.877628 29.854553 -28.613764 -11.38909 10.632993 15.088733 -6.911372 153.146155 1.088253 -109.224548 36.035032 51.723776 -29.831151 163.095419 -4.756777 -143.253186 145.122031 1.97452 179.748693 -11.9047 35.309254 4.995133 81.323551 -51.180276 79.740881 -32.45057 74.740798 -2.993531 179.994661 75.748995 0.005508 -176.566463 36.029292 -1.965986 23.635086 62.987586 70.178486 -179.852444 35.808504 94.556319 -179.998975 75.749986 -0.0 173.15247 35.098284 -168.203392 0.214479 -66.758345 85.793752 -95.177099 85.101456 -161.648611
52.8618 76.4979 -11.330400000000001 -4.51268 -77.443384 13.092205 -5.347129 7.525569 53.707 -0.041622 -9.367599 -59.377083 9.127831 18.490508 74.841489 -32.565182 -3.621562 -67.99386 0.004983 -0.0 -0.000847 -0.00072 0.0 -0.000465 -159.221315 -48.028474 170.415019 -141.906111 86.415918 90.969176 2.973177 76.695023 106.143804 -19.226743 -54.598225 -16.018301 88.928281 -50.831665 37.59971 -15.62279 -43.322956 -30.286299 -155.193547 -24.299631 122.143691 -170.808928 -35.05091 117.725927 173.12531 -66.297885 137.617298 -163.935498 -6.198365 143.214749 -145.061662 -3.308897 -178.085434 9.048254 -14.076364 -10.955394 -152.201277 37.33 -147.582449 -148.684584 13.669942 -142.252039 157.796985 -22.115468 -165.467356 55.878156 6.964705 47.594278 154.123538 -65.939401 76.297111 7.053483 -20.851612 5.366363 157.999071 4.194892 -88.45137 142.592007 1.418159 -70.14566 152.811208 -19.873671 -121.572495 134.000874 32.238061 -108.367822 158.520646 -0.192727 -142.143863 -179.910559 -48.698549 -140.889116 71.538805 -72.139844 88.496674 -12.037421 45.832788 -2.674413 124.850298 -29.037347 122.620335 -3.152182 0.125651 1.597823 179.998367 75.749515 -0.0 -177.044678 33.793087 174.697017 -13.321317 -63.177314 -132.831136 -167.851247 10.845368 67.04402 0.004602 -6e-05 0.002301 -7.515235 -40.312813 -180.0 -2.397885 -61.218529 146.296899 178.86337 -7.402127 -57.192202
